<?xml version="1.0" encoding="iso-8859-1"?>
<!-- Generator: Adobe Illustrator 19.0.0, SVG Export Plug-In . SVG Version: 6.00 Build 0)  -->
<svg version="1.1" id="Layer_1" xmlns="http://www.w3.org/2000/svg" xmlns:xlink="http://www.w3.org/1999/xlink" x="0px" y="0px"
	 viewBox="0 0 512.004 512.004" style="enable-background:new 0 0 512.004 512.004;" xml:space="preserve">
<rect x="285.033" y="42.245" transform="matrix(-0.7071 -0.7071 0.7071 -0.7071 558.6935 492.6666)" style="fill:#E0E0E0;" width="192.696" height="176.758"/>
<rect x="299.147" y="8.179" transform="matrix(-0.7071 -0.7071 0.7071 -0.7071 524.6376 410.4274)" style="fill:#F1F1F1;" width="96.348" height="176.758"/>
<path style="fill:#21C25E;" d="M261.657,84.283L34.394,311.546c-45.857,45.857-45.857,120.207,0,166.065
	c45.857,45.858,120.208,45.858,166.064,0l227.263-227.263L261.657,84.283z"/>
<g>
	
		<rect x="353.677" y="75.359" transform="matrix(-0.7071 -0.7071 0.7071 -0.7071 564.9131 419.5781)" style="fill:#3B67AA;" width="31.353" height="34.865"/>
	
		<rect x="403.54" y="125.223" transform="matrix(-0.7071 -0.7071 0.7071 -0.7071 614.7744 539.9591)" style="fill:#3B67AA;" width="31.353" height="34.865"/>
</g>
<path style="fill:#54E68B;" d="M344.689,167.316l-83.033-83.033L34.394,311.546c-45.857,45.857-45.857,120.208,0,166.065
	L344.689,167.316z"/>
<rect x="101.308" y="242.311" transform="matrix(0.7071 -0.7071 0.7071 0.7071 -145.5449 239.6362)" style="fill:#FBBA00;" width="230.372" height="106.392"/>
<rect x="82.511" y="250.107" transform="matrix(0.7071 -0.7071 0.7071 0.7071 -137.7559 220.838)" style="fill:#FBDB80;" width="230.372" height="53.197"/>
<g>
</g>
<g>
</g>
<g>
</g>
<g>
</g>
<g>
</g>
<g>
</g>
<g>
</g>
<g>
</g>
<g>
</g>
<g>
</g>
<g>
</g>
<g>
</g>
<g>
</g>
<g>
</g>
<g>
</g>
</svg>
